<svg t="1775793809927" class="icon" viewBox="0 0 1024 1024" version="1.1" xmlns="http://www.w3.org/2000/svg" p-id="8900" width="200" height="200"><path d="M362.42944 92.3648h299.13088c180.0448 0 270.06464 90.01984 270.06464 270.06464v299.13088c0 180.0448-90.01984 270.06464-270.06464 270.06464H362.42944c-180.0448 0-270.06464-90.01984-270.06464-270.06464V362.42944c0-180.0448 90.01984-270.06464 270.06464-270.06464z" fill="#077EF0" p-id="8901"></path><path d="M652.02176 578.06848c24.89856 16.47104 38.0928 26.09152 52.02944 34.048a58.38848 58.38848 0 0 1 27.19744 30.47936 58.09664 58.09664 0 0 1 0.49152 40.77056c-7.43424 31.64672-67.27168 83.82976-99.97312 88.82688-46.6432 7.03488-65.2288-26.64448-84.55168-58.10688-10.96704-18.5088-19.69664-37.01248-34.3808-65.32608l-38.0928 67.9168c-20.0704 35.71712-45.52704 63.47776-91.61216 55.51616-34.93376-6.66112-94.7712-68.28544-91.98592-100.11648a117.12 117.12 0 0 1 27.32032-57.73824c9.66144-12.21632 27.87328-18.50368 48.8704-30.16704a213.84192 213.84192 0 0 0-32.3328-13.50656c-64.48128-12.76928-92.91264-42.37824-101.2736-107.33568A873.3696 873.3696 0 0 1 220.16 338.96448a107.6736 107.6736 0 0 1 28.80512-67.35872c8.36096-8.32512 39.95136-1.29536 56.48896 7.58784 71.35744 38.12352 119.296 100.49024 164.08576 166.5536 11.89376 17.39776 24.5248 34.6112 41.99424 58.84928l41.99936-58.66496c48.128-68.6592 97.37216-136.01792 176.34816-172.10368 41.44128-18.50368 75.4432-1.29536 74.33216 44.78464a908.032 908.032 0 0 1-22.11328 177.8432c-13.19424 55.33184-65.59744 68.28544-130.07872 81.6128z" fill="#FFFFFF" p-id="8902"></path></svg>
