<svg t="1775785355168" class="icon" viewBox="0 0 1024 1024" version="1.1" xmlns="http://www.w3.org/2000/svg" p-id="23849" width="200" height="200"><path d="M0 512v512h1024V0H0v512z m632.166-380.948c64.384 47.923 117.059 93.926 117.059 99.676S696.55 284.4 632.166 336.154L513.157 430.08l-109.256-84.342c-60.482-46.003-113.157-93.926-117.058-105.426C280.99 223.063 485.842 40.96 509.256 40.96c3.901 0 58.532 40.253 122.91 90.092zM371.6 466.949c63.243 51.041 119.358 96.615 125.594 101.171 7.127 6.38 49.879-22.784 135.393-92.052 68.588-55.598 129.157-101.166 133.612-101.166 11.581 0 63.242 45.573 63.242 55.598 0 9.113-295.726 252.462-316.211 260.664-11.582 3.64-334.029-246.999-334.029-260.67 0-8.202 57.006-54.686 67.697-55.597 5.345 0 61.46 41.927 124.702 92.052z m-69.411 229.888c113.33 87.015 208.855 158.065 212.09 157.266 3.236-1.597 101.187-75.837 217.76-166.845l210.472-164.45 32.379 25.544c17.807 14.372 30.76 27.94 28.334 31.933-4.859 7.983-454.134 360.034-478.423 375.2-15.38 8.78-36.429-5.587-260.664-180.414C130.576 669.696 20.48 580.285 20.48 576.297c0-13.573 57.477-52.69 67.19-45.501 4.859 3.988 101.186 78.228 214.518 166.041z" fill="#0066FF" p-id="23850"></path></svg>
