<svg t="1775793627994" class="icon" viewBox="0 0 1024 1024" version="1.1" xmlns="http://www.w3.org/2000/svg" p-id="8152" width="200" height="200"><path d="M853.333333 0H170.666667C73.955556 0 0 73.955556 0 170.666667v682.666666c0 96.711111 73.955556 170.666667 170.666667 170.666667h682.666666c96.711111 0 170.666667-73.955556 170.666667-170.666667V170.666667c0-96.711111-73.955556-170.666667-170.666667-170.666667z m-17.066666 398.222222v22.755556c0 216.177778-164.977778 466.488889-472.177778 466.488889-96.711111 0-182.044444-28.444444-256-73.955556h39.822222c79.644444 0 147.911111-28.444444 204.8-68.266667-73.955556 0-136.533333-51.2-159.288889-113.777777 11.377778 0 17.066667 5.688889 28.444445 5.688889 17.066667 0 22.755556 0 39.822222-5.688889C182.044444 614.4 113.777778 546.133333 113.777778 466.488889c56.888889 11.377778 62.577778 17.066667 85.333333 22.755555-39.822222-34.133333-56.888889-85.333333-56.888889-142.222222 0-28.444444 5.688889-56.888889 22.755556-79.644444 79.644444 96.711111 204.8 164.977778 341.333333 170.666666-5.688889-11.377778-5.688889-22.755556-5.688889-34.133333 0-91.022222 73.955556-164.977778 164.977778-164.977778 45.511111 0 91.022222 17.066667 119.466667 51.2 39.822222-5.688889 73.955556-22.755556 108.088889-39.822222-11.377778 39.822222-39.822222 68.266667-73.955556 91.022222 34.133333-5.688889 68.266667-11.377778 96.711111-28.444444-22.755556 34.133333-51.2 62.577778-79.644444 85.333333z" fill="#1DA1F3" p-id="8153"></path></svg>
