<svg t="1776060666415" class="icon" viewBox="0 0 1024 1024" version="1.1" xmlns="http://www.w3.org/2000/svg" p-id="21636" width="200" height="200"><path d="M170.683332 0h682.633336C947.50747 0 1023.90001 76.39254 1023.90001 170.683332v682.633336c0 94.290792-76.39254 170.683332-170.683332 170.683332H170.683332C76.39254 1023.90001 0 947.50747 0 853.216678V170.683332C0 76.39254 76.39254 0 170.683332 0z" fill="#0DAA06" p-id="21637"></path><path d="M451.155942 578.343521C420.45894 596.841715 415.959379 567.944537 415.959379 567.944537l-38.39625-97.090519c-14.798555-46.095498 12.79875-20.797969 12.79875-20.797969s23.697686 19.398106 41.595938 31.196954c17.898252 11.798848 38.39625 3.499658 38.39625 3.499658l251.075481-125.487745C675.034079 296.771018 598.541549 255.975002 511.950005 255.975002c-141.386193 0-255.975002 108.589396-255.975003 242.676302 0 77.092471 37.896299 145.685773 97.090519 190.181427l-10.698955 66.393516s-5.199492 19.398106 12.79875 10.398985c12.298799-6.099404 43.595743-28.097256 62.193926-41.395958 29.297139 10.998926 61.194024 17.19832 94.590763 17.198321 141.386193 0 255.975002-108.589396 255.975002-242.676301 0-38.796211-9.699053-75.492628-26.797383-107.989454-79.992188 51.994922-265.974026 173.083097-289.971682 187.581681" fill="#FFFFFF" p-id="21638"></path></svg>
