<svg t="1775785166919" class="icon" viewBox="0 0 1024 1024" version="1.1" xmlns="http://www.w3.org/2000/svg" p-id="17764" width="200" height="200"><path d="M206.497238 2.828729h611.005524c112.583425 0 203.668508 91.085083 203.668509 203.668509v611.005524c0 112.583425-91.085083 203.668508-203.668509 203.668509h-611.005524c-112.583425 0-203.668508-91.085083-203.668509-203.668509v-611.005524c0-112.583425 91.085083-203.668508 203.668509-203.668509z" fill="#FBF1EE" p-id="17765"></path><path d="M512 512m-298.713812 0a298.713812 298.713812 0 1 0 597.427624 0 298.713812 298.713812 0 1 0-597.427624 0Z" fill="#26B4E1" p-id="17766"></path><path d="M879.734807 229.127072c-19.235359-25.458564-71.283978-15.840884-158.974586 28.287293-9.61768 5.091713-19.801105 10.183425-29.98453 15.840884 7.920442 6.223204 15.840884 12.446409 23.19558 19.801105 6.78895-3.394475 13.012155-6.78895 19.235359-10.183426 62.79779-31.681768 96.742541-39.036464 112.583425-39.036464 6.78895 0 10.183425 1.131492 11.314917 2.828729 3.960221 5.091713-0.565746 35.641989-66.758011 110.320442-57.140331 63.929282-140.304972 139.173481-235.350276 212.154696S366.603315 702.656354 290.227624 741.127072c-89.387845 45.259669-119.938122 41.299448-123.898342 36.207735s0.565746-35.641989 66.758011-110.320442c4.525967-5.091713 9.61768-10.749171 14.709392-15.840884-4.525967-9.051934-9.051934-18.103867-13.012155-27.721547-7.920442 8.486188-15.840884 16.972376-22.629834 24.892817C147.093923 721.891713 124.464088 769.414365 143.699448 794.872928c6.78895 9.051934 18.669613 13.577901 34.510497 13.577901 27.721547 0 69.020994-14.143646 124.464088-41.865194 78.072928-39.60221 173.683978-101.834254 269.860774-175.381215s181.038674-150.488398 238.744751-215.549171c65.626519-73.546961 88.256354-121.635359 68.455249-146.528177z" p-id="17767"></path></svg>
